# xmcd CD database file
#
# Track frame offsets:
#       150
#       15350
#       31686
#       48210
#       61446
#       72491
#       86472
#       103874
#       119032
#       136684
#       153803
#       169042
#       185409
#       200735
#       221247
#
# Disc length: 3200 seconds
#
# Revision: 1
# Processed by: cddbd v1.5.2PL0 Copyright (c) Steve Scherf et al.
# Submitted via: jack 3.1.1
#
DISCID=cd0c7e0f
DTITLE=Templeton Thompson - i remember you
DYEAR=2010
DGENRE=country
TTITLE0=i remember you
TTITLE1=when i get where i'm goin'
TTITLE2=somethin' with wings
TTITLE3=right colored glasses
TTITLE4=that's where i wanna live
TTITLE5=a little rain
TTITLE6=i can do this
TTITLE7=lesson in there somewhere
TTITLE8=what i believe
TTITLE9=we're all on our way somewhere
TTITLE10=it takes her away
TTITLE11=must've been a cowboy
TTITLE12=they can't hurt you now
TTITLE13=i love to run
TTITLE14=never be the same
EXTD=
EXTT0=
EXTT1=
EXTT2=
EXTT3=
EXTT4=
EXTT5=
EXTT6=
EXTT7=
EXTT8=
EXTT9=
EXTT10=
EXTT11=
EXTT12=
EXTT13=
EXTT14=
PLAYORDER=
